<svg width="60" height="75" viewBox="0 0 60 75" fill="none" xmlns="http://www.w3.org/2000/svg">
<path fill-rule="evenodd" clip-rule="evenodd" d="M27.675 73.8393L2.50838 55.8631C1.68723 55.2766 1.27666 54.9833 1.055 54.5526C0.833332 54.1219 0.833332 53.6173 0.833332 52.6082V23.3918C0.833332 23.0705 0.833332 22.8003 0.84049 22.5673L29 42.6813V74.7313C28.6432 74.5309 28.227 74.2336 27.675 73.8393ZM31 74.7313C31.3567 74.5309 31.773 74.2336 32.325 73.8393L57.4916 55.8631C58.3128 55.2766 58.7233 54.9833 58.945 54.5526C59.1667 54.1219 59.1667 53.6173 59.1667 52.6082V23.3918C59.1667 23.0705 59.1667 22.8003 59.1595 22.5673L31 42.6813V74.7313ZM58.2942 20.7276L30 40.9378L1.70578 20.7276C1.91706 20.5592 2.17986 20.3715 2.50838 20.1369L27.675 2.16068C28.7977 1.35877 29.3591 0.957809 30 0.957809C30.6409 0.957809 31.2023 1.35877 32.325 2.16068L57.4916 20.1369C57.8201 20.3715 58.0829 20.5592 58.2942 20.7276Z" fill="#222222"/>
</svg>
