<svg width="76" height="76" viewBox="0 0 76 76" fill="none" xmlns="http://www.w3.org/2000/svg">
<path fill-rule="evenodd" clip-rule="evenodd" d="M75.5 38C75.5 58.7107 58.7107 75.5 38 75.5C17.2893 75.5 0.5 58.7107 0.5 38C0.5 17.2893 17.2893 0.5 38 0.5C58.7107 0.5 75.5 17.2893 75.5 38ZM38 59.8333C37.4477 59.8333 37 59.3856 37 58.8333V39H17.1667C16.6144 39 16.1667 38.5523 16.1667 38C16.1667 37.4477 16.6144 37 17.1667 37H37V17.1667C37 16.6144 37.4477 16.1667 38 16.1667C38.5523 16.1667 39 16.6144 39 17.1667V37H58.8333C59.3856 37 59.8333 37.4477 59.8333 38C59.8333 38.5523 59.3856 39 58.8333 39H39V58.8333C39 59.3856 38.5523 59.8333 38 59.8333Z" fill="black"/>
<path d="M37 39H37.5V38.5H37V39ZM37 37V37.5H37.5V37H37ZM39 37H38.5V37.5H39V37ZM39 39V38.5H38.5V39H39ZM38 76C58.9868 76 76 58.9868 76 38H75C75 58.4345 58.4345 75 38 75V76ZM0 38C0 58.9868 17.0132 76 38 76V75C17.5655 75 1 58.4345 1 38H0ZM38 0C17.0132 0 0 17.0132 0 38H1C1 17.5655 17.5655 1 38 1V0ZM76 38C76 17.0132 58.9868 0 38 0V1C58.4345 1 75 17.5655 75 38H76ZM36.5 58.8333C36.5 59.6618 37.1716 60.3333 38 60.3333V59.3333C37.7239 59.3333 37.5 59.1095 37.5 58.8333H36.5ZM36.5 39V58.8333H37.5V39H36.5ZM37 38.5H17.1667V39.5H37V38.5ZM17.1667 38.5C16.8905 38.5 16.6667 38.2761 16.6667 38H15.6667C15.6667 38.8284 16.3382 39.5 17.1667 39.5V38.5ZM16.6667 38C16.6667 37.7239 16.8905 37.5 17.1667 37.5V36.5C16.3382 36.5 15.6667 37.1716 15.6667 38H16.6667ZM17.1667 37.5H37V36.5H17.1667V37.5ZM36.5 17.1667V37H37.5V17.1667H36.5ZM38 15.6667C37.1716 15.6667 36.5 16.3382 36.5 17.1667H37.5C37.5 16.8905 37.7239 16.6667 38 16.6667V15.6667ZM39.5 17.1667C39.5 16.3382 38.8284 15.6667 38 15.6667V16.6667C38.2761 16.6667 38.5 16.8905 38.5 17.1667H39.5ZM39.5 37V17.1667H38.5V37H39.5ZM39 37.5H58.8333V36.5H39V37.5ZM58.8333 37.5C59.1095 37.5 59.3333 37.7239 59.3333 38H60.3333C60.3333 37.1716 59.6618 36.5 58.8333 36.5V37.5ZM59.3333 38C59.3333 38.2761 59.1095 38.5 58.8333 38.5V39.5C59.6618 39.5 60.3333 38.8284 60.3333 38H59.3333ZM58.8333 38.5H39V39.5H58.8333V38.5ZM39.5 58.8333V39H38.5V58.8333H39.5ZM38 60.3333C38.8284 60.3333 39.5 59.6618 39.5 58.8333H38.5C38.5 59.1095 38.2761 59.3333 38 59.3333V60.3333Z" fill="white"/>
</svg>
