<svg width="72" height="70" viewBox="0 0 72 70" fill="none" xmlns="http://www.w3.org/2000/svg">
<path d="M46.5 45.2083L57 55.4167" stroke="white" stroke-width="1.5" stroke-linecap="round" stroke-linejoin="round"/>
<path d="M15 32.0833C15 34.3815 15.4656 36.6571 16.3702 38.7803C17.2748 40.9035 18.6006 42.8327 20.2721 44.4577C21.9435 46.0827 23.9278 47.3718 26.1117 48.2512C28.2956 49.1307 30.6362 49.5833 33 49.5833C35.3638 49.5833 37.7044 49.1307 39.8883 48.2512C42.0722 47.3718 44.0565 46.0827 45.7279 44.4577C47.3994 42.8327 48.7252 40.9035 49.6298 38.7803C50.5344 36.6571 51 34.3815 51 32.0833C51 27.4421 49.1036 22.9909 45.7279 19.709C42.3523 16.4271 37.7739 14.5833 33 14.5833C28.2261 14.5833 23.6477 16.4271 20.2721 19.709C16.8964 22.9909 15 27.4421 15 32.0833V32.0833Z" stroke="white" stroke-width="1.5" stroke-linecap="round" stroke-linejoin="round"/>
</svg>
