<svg width="40" height="40" viewBox="0 0 40 40" fill="none" xmlns="http://www.w3.org/2000/svg">
<g style="mix-blend-mode:multiply">
<path d="M23.7501 6.66667H16.2501C10.9468 6.66667 8.29511 6.66667 6.64759 8.34035C5.00006 10.014 5.00006 12.7078 5.00006 18.0952V21.9048C5.00006 27.2922 5.00006 29.986 6.64759 31.6597C8.29511 33.3333 10.9468 33.3333 16.2501 33.3333H23.7501C29.0534 33.3333 31.705 33.3333 33.3525 31.6597C35.0001 29.986 35.0001 27.2922 35.0001 21.9048V18.0952C35.0001 12.7078 35.0001 10.014 33.3525 8.34035C31.705 6.66667 29.0534 6.66667 23.7501 6.66667Z" stroke="#33363F" stroke-width="2"/>
<path d="M11.6667 13.3333H16.6667" stroke="#33363F" stroke-width="2" stroke-linecap="round"/>
<path d="M25.0001 24.6667V22C25.0001 21.0572 25.0001 20.5858 25.293 20.2929C25.5858 20 26.0573 20 27.0001 20H33.0001C33.9429 20 34.4143 20 34.7072 20.2929C35.0001 20.5858 35.0001 21.0572 35.0001 22V24.6667C35.0001 25.6095 35.0001 26.0809 34.7072 26.3738C34.4143 26.6667 33.9429 26.6667 33.0001 26.6667H27.0001C26.0573 26.6667 25.5858 26.6667 25.293 26.3738C25.0001 26.0809 25.0001 25.6095 25.0001 24.6667Z" stroke="#33363F" stroke-width="2"/>
</g>
</svg>
