<svg xmlns="http://www.w3.org/2000/svg" width="512" height="512" viewBox="0 0 512 512" version="1.1"><path d="" stroke="none" fill="#080404" fill-rule="evenodd"/><path d="M 223.564 1.625 C 177.870 7.477, 131.882 27.149, 95 56.620 C 84.098 65.331, 65.331 84.098, 56.620 95 C 26.699 132.445, 7.290 178.241, 1.536 224.970 C -0.429 240.920, -0.439 269.756, 1.512 286.441 C 6.931 332.767, 26.659 379.505, 56.620 417 C 65.373 427.954, 84.150 446.718, 95 455.353 C 129.016 482.424, 169.445 500.904, 211 508.374 C 241.862 513.922, 280.330 513.172, 310.934 506.426 C 347.913 498.275, 386.648 479.633, 417 455.380 C 427.902 446.669, 446.669 427.902, 455.380 417 C 484.721 380.281, 505.608 331.372, 510.078 288.923 C 510.681 283.191, 511.586 277.719, 512.088 276.764 C 512.589 275.809, 512.964 265.459, 512.921 253.764 C 512.878 242.069, 512.566 233.175, 512.229 234 C 511.891 234.825, 511.041 230.441, 510.338 224.258 C 505.275 179.671, 485.074 132.161, 455.380 95 C 446.669 84.098, 427.902 65.331, 417 56.620 C 379.589 26.727, 333.716 7.284, 287.030 1.536 C 271.561 -0.369, 238.774 -0.323, 223.564 1.625 M 241.500 33.017 C 144.707 39.282, 61.962 108.523, 39.039 202.435 C 30.498 237.425, 30.616 277.051, 39.363 311.161 C 47.121 341.420, 62.559 372.096, 82.308 396.500 C 90.128 406.163, 106.912 422.879, 116.500 430.554 C 175.924 478.122, 255.893 492.021, 328.347 467.375 C 422.934 435.200, 485.174 342.340, 478.974 242.648 C 477.054 211.778, 470.028 185.183, 456.478 157.500 C 416.879 76.594, 331.557 27.188, 241.500 33.017 M 0.426 255.500 C 0.427 267.600, 0.571 272.413, 0.747 266.195 C 0.923 259.977, 0.922 250.077, 0.746 244.195 C 0.569 238.313, 0.425 243.400, 0.426 255.500 M 136.218 241.656 C 130.723 244.376, 128.500 248.507, 128.500 256 C 128.500 263.465, 130.197 266.555, 136.158 269.945 C 139.813 272.023, 139.914 272.024, 257.158 271.762 L 374.500 271.500 377.712 269.090 C 386.231 262.698, 385.959 249.044, 377.182 242.500 C 374.540 240.530, 372.752 240.497, 257 240.266 C 150.279 240.054, 139.199 240.181, 136.218 241.656" stroke="none" fill="#040404" fill-rule="evenodd"/></svg>